<mxfile host="app.diagrams.net" modified="2020-10-22T20:53:00.535Z" agent="5.0 (Windows NT 10.0; Win64; x64) AppleWebKit/537.36 (KHTML, like Gecko) Chrome/86.0.4240.75 Safari/537.36" etag="rH6kMChM7JNn3bHXv7pu" version="13.8.1" type="github">
  <diagram name="Page-1" id="74e2e168-ea6b-b213-b513-2b3c1d86103e">
    <mxGraphModel dx="3162" dy="1122" grid="1" gridSize="10" guides="1" tooltips="1" connect="1" arrows="1" fold="1" page="1" pageScale="1" pageWidth="1100" pageHeight="850" background="#ffffff" math="0" shadow="0">
      <root>
        <mxCell id="0" />
        <mxCell id="1" parent="0" />
        <mxCell id="77e6c97f196da883-1" value="Workflow: Metadata Readiness" style="swimlane;html=1;childLayout=stackLayout;startSize=70;rounded=0;shadow=0;labelBackgroundColor=none;strokeWidth=1;fontFamily=Helvetica;fontSize=20;align=center;fillColor=#E6E6E6;" parent="1" vertex="1">
          <mxGeometry x="-1080" y="50" width="1850" height="1420" as="geometry" />
        </mxCell>
        <mxCell id="77e6c97f196da883-2" value="" style="swimlane;html=1;startSize=0;whiteSpace=wrap;" parent="77e6c97f196da883-1" vertex="1">
          <mxGeometry y="70" width="1850" height="1350" as="geometry" />
        </mxCell>
        <mxCell id="BV2q5p9ctBvcztRm7qWQ-21" style="edgeStyle=orthogonalEdgeStyle;rounded=0;orthogonalLoop=1;jettySize=auto;html=1;exitX=0.5;exitY=1;exitDx=0;exitDy=0;fontFamily=Helvetica;fontSize=13;fontStyle=1" parent="77e6c97f196da883-2" edge="1">
          <mxGeometry relative="1" as="geometry">
            <mxPoint x="2435" y="659.1399999999999" as="sourcePoint" />
            <mxPoint x="2435" y="659.1399999999999" as="targetPoint" />
          </mxGeometry>
        </mxCell>
        <mxCell id="2tCSn5X5kFdM__O0FERV-1" value="" style="aspect=fixed;html=1;points=[];align=center;image;fontSize=12;image=img/lib/mscae/Quick_Start_Center.svg;" parent="77e6c97f196da883-2" vertex="1">
          <mxGeometry x="40" y="607.95" width="75" height="75" as="geometry" />
        </mxCell>
        <mxCell id="2tCSn5X5kFdM__O0FERV-4" value="" style="group" parent="77e6c97f196da883-2" vertex="1" connectable="0">
          <mxGeometry x="200" y="590.95" width="150" height="109" as="geometry" />
        </mxCell>
        <mxCell id="2tCSn5X5kFdM__O0FERV-2" value="" style="shape=image;html=1;verticalAlign=top;verticalLabelPosition=bottom;labelBackgroundColor=#ffffff;imageAspect=0;aspect=fixed;image=https://cdn0.iconfinder.com/data/icons/customicondesign-office7-shadow-png/128/Product-documentation.png" parent="2tCSn5X5kFdM__O0FERV-4" vertex="1">
          <mxGeometry x="30.5" width="89" height="89" as="geometry" />
        </mxCell>
        <mxCell id="2tCSn5X5kFdM__O0FERV-3" value="Documentation Review" style="text;html=1;strokeColor=none;fillColor=none;align=center;verticalAlign=middle;whiteSpace=wrap;rounded=0;" parent="2tCSn5X5kFdM__O0FERV-4" vertex="1">
          <mxGeometry y="89" width="150" height="20" as="geometry" />
        </mxCell>
        <mxCell id="u-Ag5X-3Hhz4MKtl7owg-2" value="" style="curved=1;endArrow=classic;html=1;entryX=0.01;entryY=0.5;entryDx=0;entryDy=0;entryPerimeter=0;" parent="2tCSn5X5kFdM__O0FERV-4" target="2tCSn5X5kFdM__O0FERV-5" edge="1">
          <mxGeometry width="50" height="50" relative="1" as="geometry">
            <mxPoint x="119.5" y="50" as="sourcePoint" />
            <mxPoint x="169.5" as="targetPoint" />
            <Array as="points">
              <mxPoint x="30" y="-350.95000000000005" />
            </Array>
          </mxGeometry>
        </mxCell>
        <mxCell id="u-Ag5X-3Hhz4MKtl7owg-3" value="" style="curved=1;endArrow=classic;html=1;entryX=0.064;entryY=0.409;entryDx=0;entryDy=0;entryPerimeter=0;" parent="2tCSn5X5kFdM__O0FERV-4" target="2tCSn5X5kFdM__O0FERV-31" edge="1">
          <mxGeometry width="50" height="50" relative="1" as="geometry">
            <mxPoint x="119.5" y="50" as="sourcePoint" />
            <mxPoint x="169.5" as="targetPoint" />
            <Array as="points">
              <mxPoint x="160" y="-80.95000000000005" />
            </Array>
          </mxGeometry>
        </mxCell>
        <mxCell id="u-Ag5X-3Hhz4MKtl7owg-4" value="" style="curved=1;endArrow=classic;html=1;entryX=-0.023;entryY=0.533;entryDx=0;entryDy=0;entryPerimeter=0;" parent="77e6c97f196da883-2" target="2tCSn5X5kFdM__O0FERV-80" edge="1">
          <mxGeometry width="50" height="50" relative="1" as="geometry">
            <mxPoint x="320" y="640.95" as="sourcePoint" />
            <mxPoint x="370" y="590.95" as="targetPoint" />
            <Array as="points">
              <mxPoint x="410" y="700" />
              <mxPoint x="330" y="1100" />
            </Array>
          </mxGeometry>
        </mxCell>
        <mxCell id="2tCSn5X5kFdM__O0FERV-33" value="" style="group" parent="77e6c97f196da883-2" vertex="1" connectable="0">
          <mxGeometry x="410" y="500" width="130" height="117.5" as="geometry" />
        </mxCell>
        <mxCell id="2tCSn5X5kFdM__O0FERV-31" value="" style="shadow=0;dashed=0;html=1;strokeColor=none;labelPosition=center;verticalLabelPosition=bottom;verticalAlign=top;align=center;outlineConnect=0;shape=mxgraph.veeam.license;fillColor=#666666;" parent="2tCSn5X5kFdM__O0FERV-33" vertex="1">
          <mxGeometry x="30" width="70" height="76.4" as="geometry" />
        </mxCell>
        <mxCell id="2tCSn5X5kFdM__O0FERV-32" value="Identify the license under which your data will be published" style="text;html=1;strokeColor=none;fillColor=none;align=center;verticalAlign=middle;whiteSpace=wrap;rounded=0;" parent="2tCSn5X5kFdM__O0FERV-33" vertex="1">
          <mxGeometry y="97.5" width="130" height="20" as="geometry" />
        </mxCell>
        <mxCell id="2tCSn5X5kFdM__O0FERV-8" value="" style="group" parent="77e6c97f196da883-2" vertex="1" connectable="0">
          <mxGeometry x="400.5" y="130.76" width="160" height="115" as="geometry" />
        </mxCell>
        <mxCell id="2tCSn5X5kFdM__O0FERV-5" value="" style="shape=mxgraph.cisco.people.androgenous_person;html=1;pointerEvents=1;dashed=0;fillColor=#036897;strokeColor=#ffffff;strokeWidth=2;verticalLabelPosition=bottom;verticalAlign=top;align=center;outlineConnect=0;" parent="2tCSn5X5kFdM__O0FERV-8" vertex="1">
          <mxGeometry x="45.5" width="69" height="82" as="geometry" />
        </mxCell>
        <mxCell id="2tCSn5X5kFdM__O0FERV-6" value="Identify the Editor for the BCDC metadata record" style="text;html=1;strokeColor=none;fillColor=none;align=center;verticalAlign=middle;whiteSpace=wrap;rounded=0;" parent="2tCSn5X5kFdM__O0FERV-8" vertex="1">
          <mxGeometry y="95" width="160" height="20" as="geometry" />
        </mxCell>
        <mxCell id="u-Ag5X-3Hhz4MKtl7owg-8" value="" style="curved=1;endArrow=classic;html=1;" parent="2tCSn5X5kFdM__O0FERV-8" target="2tCSn5X5kFdM__O0FERV-9" edge="1">
          <mxGeometry width="50" height="50" relative="1" as="geometry">
            <mxPoint x="114.5" y="39.24000000000001" as="sourcePoint" />
            <mxPoint x="164.5" y="-0.7599999999999909" as="targetPoint" />
            <Array as="points">
              <mxPoint x="159.5" y="-40.75999999999999" />
            </Array>
          </mxGeometry>
        </mxCell>
        <mxCell id="2tCSn5X5kFdM__O0FERV-99" value="" style="curved=1;endArrow=classic;html=1;entryX=0.014;entryY=0.471;entryDx=0;entryDy=0;entryPerimeter=0;" parent="77e6c97f196da883-2" target="2tCSn5X5kFdM__O0FERV-83" edge="1">
          <mxGeometry width="50" height="50" relative="1" as="geometry">
            <mxPoint x="480" y="1110" as="sourcePoint" />
            <mxPoint x="570" y="1070" as="targetPoint" />
            <Array as="points">
              <mxPoint x="550" y="990" />
            </Array>
          </mxGeometry>
        </mxCell>
        <mxCell id="2tCSn5X5kFdM__O0FERV-100" value="" style="curved=1;endArrow=classic;html=1;entryX=0.127;entryY=0.165;entryDx=0;entryDy=0;entryPerimeter=0;exitX=1.014;exitY=0.494;exitDx=0;exitDy=0;exitPerimeter=0;" parent="77e6c97f196da883-2" source="2tCSn5X5kFdM__O0FERV-83" target="2tCSn5X5kFdM__O0FERV-84" edge="1">
          <mxGeometry width="50" height="50" relative="1" as="geometry">
            <mxPoint x="480" y="1110" as="sourcePoint" />
            <mxPoint x="590" y="1100" as="targetPoint" />
            <Array as="points">
              <mxPoint x="760" y="1010" />
            </Array>
          </mxGeometry>
        </mxCell>
        <mxCell id="2tCSn5X5kFdM__O0FERV-101" value="" style="curved=1;endArrow=classic;html=1;entryX=0.497;entryY=-0.024;entryDx=0;entryDy=0;entryPerimeter=0;exitX=1.022;exitY=0.494;exitDx=0;exitDy=0;exitPerimeter=0;" parent="77e6c97f196da883-2" source="2tCSn5X5kFdM__O0FERV-84" target="2tCSn5X5kFdM__O0FERV-85" edge="1">
          <mxGeometry width="50" height="50" relative="1" as="geometry">
            <mxPoint x="480" y="1110" as="sourcePoint" />
            <mxPoint x="615" y="1170.38" as="targetPoint" />
            <Array as="points">
              <mxPoint x="980" y="1120" />
            </Array>
          </mxGeometry>
        </mxCell>
        <mxCell id="2tCSn5X5kFdM__O0FERV-102" value="" style="curved=1;endArrow=classic;html=1;entryX=-0.022;entryY=0.494;entryDx=0;entryDy=0;entryPerimeter=0;exitX=1.024;exitY=0.492;exitDx=0;exitDy=0;exitPerimeter=0;" parent="77e6c97f196da883-2" source="2tCSn5X5kFdM__O0FERV-84" target="2tCSn5X5kFdM__O0FERV-86" edge="1">
          <mxGeometry width="50" height="50" relative="1" as="geometry">
            <mxPoint x="510" y="1100" as="sourcePoint" />
            <mxPoint x="595.5" y="1260" as="targetPoint" />
            <Array as="points">
              <mxPoint x="860" y="1050" />
              <mxPoint x="835" y="970" />
            </Array>
          </mxGeometry>
        </mxCell>
        <mxCell id="u-Ag5X-3Hhz4MKtl7owg-5" value="" style="endArrow=classic;html=1;entryX=0;entryY=0.5;entryDx=0;entryDy=0;" parent="77e6c97f196da883-2" target="2tCSn5X5kFdM__O0FERV-34" edge="1">
          <mxGeometry width="50" height="50" relative="1" as="geometry">
            <mxPoint x="510" y="540" as="sourcePoint" />
            <mxPoint x="580" y="490" as="targetPoint" />
          </mxGeometry>
        </mxCell>
        <mxCell id="2tCSn5X5kFdM__O0FERV-88" value="" style="group" parent="77e6c97f196da883-2" vertex="1" connectable="0">
          <mxGeometry x="560.5" y="960" width="180" height="115.13999999999999" as="geometry" />
        </mxCell>
        <mxCell id="2tCSn5X5kFdM__O0FERV-83" value="" style="html=1;verticalLabelPosition=bottom;align=center;labelBackgroundColor=#ffffff;verticalAlign=top;strokeWidth=2;shadow=0;dashed=0;shape=mxgraph.ios7.icons.user;strokeColor=#006633;fillColor=none;" parent="2tCSn5X5kFdM__O0FERV-88" vertex="1">
          <mxGeometry x="55" width="70" height="70" as="geometry" />
        </mxCell>
        <mxCell id="2tCSn5X5kFdM__O0FERV-87" value="The CUSTODIAN has been identified and is aware of their role in publishing this dataset" style="text;html=1;strokeColor=none;fillColor=none;align=center;verticalAlign=middle;whiteSpace=wrap;rounded=0;" parent="2tCSn5X5kFdM__O0FERV-88" vertex="1">
          <mxGeometry y="95.13999999999999" width="180" height="20" as="geometry" />
        </mxCell>
        <mxCell id="2tCSn5X5kFdM__O0FERV-37" value="" style="group" parent="77e6c97f196da883-2" vertex="1" connectable="0">
          <mxGeometry x="670" y="348.75" width="80" height="110.75999999999999" as="geometry" />
        </mxCell>
        <mxCell id="2tCSn5X5kFdM__O0FERV-34" value="" style="aspect=fixed;perimeter=ellipsePerimeter;html=1;align=center;shadow=0;dashed=0;spacingTop=3;image;image=img/lib/active_directory/security.svg;strokeColor=#0000CC;fillColor=#666666;" parent="2tCSn5X5kFdM__O0FERV-37" vertex="1">
          <mxGeometry x="14.799999999999955" width="50.4" height="80" as="geometry" />
        </mxCell>
        <mxCell id="2tCSn5X5kFdM__O0FERV-35" value="Access Only" style="text;html=1;strokeColor=none;fillColor=none;align=center;verticalAlign=middle;whiteSpace=wrap;rounded=0;" parent="2tCSn5X5kFdM__O0FERV-37" vertex="1">
          <mxGeometry y="90.75999999999999" width="80" height="20" as="geometry" />
        </mxCell>
        <mxCell id="2tCSn5X5kFdM__O0FERV-55" value="" style="group" parent="77e6c97f196da883-2" vertex="1" connectable="0">
          <mxGeometry x="625" y="500" width="170" height="107.95000000000005" as="geometry" />
        </mxCell>
        <mxCell id="2tCSn5X5kFdM__O0FERV-50" value="" style="shape=image;html=1;verticalAlign=top;verticalLabelPosition=bottom;labelBackgroundColor=#ffffff;imageAspect=0;aspect=fixed;image=https://cdn1.iconfinder.com/data/icons/hawcons/32/698842-icon-115-lock-open-128.png;strokeColor=#0000CC;fillColor=#666666;" parent="2tCSn5X5kFdM__O0FERV-55" vertex="1">
          <mxGeometry x="46" width="78" height="78" as="geometry" />
        </mxCell>
        <mxCell id="2tCSn5X5kFdM__O0FERV-52" value="Open Government License - British Columbia" style="text;html=1;strokeColor=none;fillColor=none;align=center;verticalAlign=middle;whiteSpace=wrap;rounded=0;" parent="2tCSn5X5kFdM__O0FERV-55" vertex="1">
          <mxGeometry y="87.95000000000005" width="170" height="20" as="geometry" />
        </mxCell>
        <mxCell id="2tCSn5X5kFdM__O0FERV-54" value="" style="group" parent="77e6c97f196da883-2" vertex="1" connectable="0">
          <mxGeometry x="630" y="700" width="160" height="110" as="geometry" />
        </mxCell>
        <mxCell id="2tCSn5X5kFdM__O0FERV-51" value="" style="shape=image;html=1;verticalAlign=top;verticalLabelPosition=bottom;labelBackgroundColor=#ffffff;imageAspect=0;aspect=fixed;image=https://cdn1.iconfinder.com/data/icons/hawcons/32/698631-icon-115-lock-open-128.png;strokeColor=#0000CC;fillColor=#666666;" parent="2tCSn5X5kFdM__O0FERV-54" vertex="1">
          <mxGeometry x="40.430000000000064" width="79.14" height="79.14" as="geometry" />
        </mxCell>
        <mxCell id="2tCSn5X5kFdM__O0FERV-53" value="Open Government License - Other" style="text;html=1;strokeColor=none;fillColor=none;align=center;verticalAlign=middle;whiteSpace=wrap;rounded=0;" parent="2tCSn5X5kFdM__O0FERV-54" vertex="1">
          <mxGeometry y="90" width="160" height="20" as="geometry" />
        </mxCell>
        <mxCell id="2tCSn5X5kFdM__O0FERV-90" value="" style="group" parent="77e6c97f196da883-2" vertex="1" connectable="0">
          <mxGeometry x="730" y="1035" width="170" height="120" as="geometry" />
        </mxCell>
        <mxCell id="2tCSn5X5kFdM__O0FERV-84" value="" style="html=1;verticalLabelPosition=bottom;align=center;labelBackgroundColor=#ffffff;verticalAlign=top;strokeWidth=2;shadow=0;dashed=0;shape=mxgraph.ios7.icons.user;fillColor=none;strokeColor=#6600CC;" parent="2tCSn5X5kFdM__O0FERV-90" vertex="1">
          <mxGeometry x="50" width="70" height="70" as="geometry" />
        </mxCell>
        <mxCell id="2tCSn5X5kFdM__O0FERV-89" value="&#xa;&#xa;&lt;span style=&quot;color: rgb(0, 0, 0); font-family: helvetica; font-size: 12px; font-style: normal; font-weight: 400; letter-spacing: normal; text-align: center; text-indent: 0px; text-transform: none; word-spacing: 0px; background-color: rgb(248, 249, 250); display: inline; float: none;&quot;&gt;The POINT OF CONTACT has been identified and is aware of their role in publishing this dataset&lt;/span&gt;&#xa;&#xa;" style="text;html=1;strokeColor=none;fillColor=none;align=center;verticalAlign=middle;whiteSpace=wrap;rounded=0;" parent="2tCSn5X5kFdM__O0FERV-90" vertex="1">
          <mxGeometry y="100" width="170" height="20" as="geometry" />
        </mxCell>
        <mxCell id="u-Ag5X-3Hhz4MKtl7owg-25" value="" style="curved=1;endArrow=classic;html=1;exitX=1;exitY=0.5;exitDx=0;exitDy=0;entryX=0.5;entryY=0;entryDx=0;entryDy=0;" parent="77e6c97f196da883-2" source="2tCSn5X5kFdM__O0FERV-9" target="2tCSn5X5kFdM__O0FERV-28" edge="1">
          <mxGeometry width="50" height="50" relative="1" as="geometry">
            <mxPoint x="885" y="103.75999999999999" as="sourcePoint" />
            <mxPoint x="935" y="53.75999999999999" as="targetPoint" />
            <Array as="points">
              <mxPoint x="1510" y="50" />
            </Array>
          </mxGeometry>
        </mxCell>
        <mxCell id="2tCSn5X5kFdM__O0FERV-19" value="" style="group" parent="77e6c97f196da883-2" vertex="1" connectable="0">
          <mxGeometry x="850" y="187.5" width="130" height="110" as="geometry" />
        </mxCell>
        <mxCell id="2tCSn5X5kFdM__O0FERV-16" value="Obtain approval from Data Custodian" style="text;html=1;strokeColor=none;fillColor=none;align=center;verticalAlign=middle;whiteSpace=wrap;rounded=0;" parent="2tCSn5X5kFdM__O0FERV-19" vertex="1">
          <mxGeometry y="90" width="130" height="20" as="geometry" />
        </mxCell>
        <mxCell id="2tCSn5X5kFdM__O0FERV-15" value="" style="shape=image;html=1;verticalAlign=top;verticalLabelPosition=bottom;labelBackgroundColor=#ffffff;imageAspect=0;aspect=fixed;image=https://cdn1.iconfinder.com/data/icons/social-media-2355/32/like_love_favourite_approval_best-128.png" parent="2tCSn5X5kFdM__O0FERV-19" vertex="1">
          <mxGeometry x="26" width="78" height="78" as="geometry" />
        </mxCell>
        <mxCell id="u-Ag5X-3Hhz4MKtl7owg-17" style="edgeStyle=orthogonalEdgeStyle;rounded=0;orthogonalLoop=1;jettySize=auto;html=1;exitX=1;exitY=0.5;exitDx=0;exitDy=0;entryX=0.007;entryY=0.557;entryDx=0;entryDy=0;entryPerimeter=0;" parent="77e6c97f196da883-2" source="2tCSn5X5kFdM__O0FERV-56" target="2tCSn5X5kFdM__O0FERV-60" edge="1">
          <mxGeometry relative="1" as="geometry" />
        </mxCell>
        <mxCell id="2tCSn5X5kFdM__O0FERV-56" value="" style="shape=image;html=1;verticalAlign=top;verticalLabelPosition=bottom;labelBackgroundColor=#ffffff;imageAspect=0;aspect=fixed;image=https://cdn0.iconfinder.com/data/icons/job-seeker/256/checklist_job_seeker_employee_unemployee_work-128.png;strokeColor=#0000CC;fillColor=#666666;" parent="77e6c97f196da883-2" vertex="1">
          <mxGeometry x="871" y="500" width="78" height="78" as="geometry" />
        </mxCell>
        <mxCell id="2tCSn5X5kFdM__O0FERV-92" value="" style="group" parent="77e6c97f196da883-2" vertex="1" connectable="0">
          <mxGeometry x="870" y="1190" width="160" height="129.24000000000012" as="geometry" />
        </mxCell>
        <mxCell id="2tCSn5X5kFdM__O0FERV-85" value="" style="html=1;verticalLabelPosition=bottom;align=center;labelBackgroundColor=#ffffff;verticalAlign=top;strokeWidth=2;shadow=0;dashed=0;shape=mxgraph.ios7.icons.user;fillColor=none;strokeColor=#0000FF;" parent="2tCSn5X5kFdM__O0FERV-92" vertex="1">
          <mxGeometry x="45.5" width="70" height="70" as="geometry" />
        </mxCell>
        <mxCell id="2tCSn5X5kFdM__O0FERV-91" value="&lt;br&gt;&lt;br&gt;&lt;span style=&quot;color: rgb(0 , 0 , 0) ; font-family: &amp;#34;helvetica&amp;#34; ; font-size: 12px ; font-style: italic ; font-weight: 400 ; letter-spacing: normal ; text-align: center ; text-indent: 0px ; text-transform: none ; word-spacing: 0px ; background-color: rgb(248 , 249 , 250) ; display: inline ; float: none&quot;&gt;The BUSINESS EXPERT (optional) has been identified and is aware of their role in publishing this dataset&lt;/span&gt;&lt;br&gt;" style="text;html=1;strokeColor=none;fillColor=none;align=center;verticalAlign=middle;whiteSpace=wrap;rounded=0;" parent="2tCSn5X5kFdM__O0FERV-92" vertex="1">
          <mxGeometry x="0.5" y="80.00000000000013" width="160" height="20" as="geometry" />
        </mxCell>
        <mxCell id="2tCSn5X5kFdM__O0FERV-94" value="" style="group" parent="77e6c97f196da883-2" vertex="1" connectable="0">
          <mxGeometry x="870" y="880" width="160" height="129.24" as="geometry" />
        </mxCell>
        <mxCell id="2tCSn5X5kFdM__O0FERV-86" value="" style="html=1;verticalLabelPosition=bottom;align=center;labelBackgroundColor=#ffffff;verticalAlign=top;strokeWidth=2;shadow=0;dashed=0;shape=mxgraph.ios7.icons.user;fillColor=none;strokeColor=#FF8000;" parent="2tCSn5X5kFdM__O0FERV-94" vertex="1">
          <mxGeometry x="45" width="70" height="70" as="geometry" />
        </mxCell>
        <mxCell id="2tCSn5X5kFdM__O0FERV-93" value="&#xa;&#xa;&lt;span style=&quot;color: rgb(0, 0, 0); font-family: helvetica; font-size: 12px; font-style: italic; font-weight: 400; letter-spacing: normal; text-align: center; text-indent: 0px; text-transform: none; word-spacing: 0px; background-color: rgb(248, 249, 250); display: inline; float: none;&quot;&gt;The DISTRIBUTOR (optional) has been identified and is aware of their role in publishing this dataset&lt;/span&gt;&lt;br style=&quot;color: rgb(0, 0, 0); font-family: helvetica; font-size: 12px; font-style: italic; font-weight: 400; letter-spacing: normal; text-align: center; text-indent: 0px; text-transform: none; word-spacing: 0px; background-color: rgb(248, 249, 250);&quot;&gt;&lt;span style=&quot;color: rgb(0, 0, 0); font-family: helvetica; font-size: 12px; font-style: italic; font-weight: 400; letter-spacing: normal; text-align: center; text-indent: 0px; text-transform: none; word-spacing: 0px; background-color: rgb(248, 249, 250); display: inline; float: none;&quot;&gt;&amp;nbsp;&lt;/span&gt;&#xa;&#xa;" style="text;html=1;strokeColor=none;fillColor=none;align=center;verticalAlign=middle;whiteSpace=wrap;rounded=0;" parent="2tCSn5X5kFdM__O0FERV-94" vertex="1">
          <mxGeometry y="109.24000000000001" width="160" height="20" as="geometry" />
        </mxCell>
        <mxCell id="BV2q5p9ctBvcztRm7qWQ-67" style="edgeStyle=orthogonalEdgeStyle;rounded=0;orthogonalLoop=1;jettySize=auto;html=1;entryX=0;entryY=0.5;entryDx=0;entryDy=0;strokeWidth=3;fontFamily=Helvetica;fontSize=14;strokeColor=#009900;fontStyle=1;" parent="77e6c97f196da883-2" source="2tCSn5X5kFdM__O0FERV-66" target="2tCSn5X5kFdM__O0FERV-77" edge="1">
          <mxGeometry relative="1" as="geometry">
            <mxPoint x="1711" y="614.1399999999999" as="sourcePoint" />
            <mxPoint x="1562" y="661.5" as="targetPoint" />
            <Array as="points">
              <mxPoint x="1480" y="544" />
              <mxPoint x="1480" y="650" />
            </Array>
          </mxGeometry>
        </mxCell>
        <mxCell id="XNEf0oyAz6vDhPgSz38F-1" value="&lt;b&gt;&lt;font style=&quot;font-size: 14px&quot;&gt;Checklist &lt;br&gt;Complete&lt;/font&gt;&lt;/b&gt;" style="edgeLabel;html=1;align=center;verticalAlign=middle;resizable=0;points=[];" parent="BV2q5p9ctBvcztRm7qWQ-67" vertex="1" connectable="0">
          <mxGeometry x="-0.2625" y="-2" relative="1" as="geometry">
            <mxPoint y="34.95" as="offset" />
          </mxGeometry>
        </mxCell>
        <mxCell id="BV2q5p9ctBvcztRm7qWQ-56" style="edgeStyle=orthogonalEdgeStyle;rounded=0;orthogonalLoop=1;jettySize=auto;html=1;strokeWidth=3;fontFamily=Helvetica;fontSize=12;strokeColor=#FF0000;exitX=0.5;exitY=1;exitDx=0;exitDy=0;entryX=0.5;entryY=1;entryDx=0;entryDy=0;" parent="77e6c97f196da883-2" source="2tCSn5X5kFdM__O0FERV-66" target="2tCSn5X5kFdM__O0FERV-56" edge="1">
          <mxGeometry relative="1" as="geometry">
            <Array as="points">
              <mxPoint x="1361" y="665" />
              <mxPoint x="910" y="665" />
            </Array>
            <mxPoint x="1606" y="704.1399999999999" as="sourcePoint" />
            <mxPoint x="910" y="575" as="targetPoint" />
          </mxGeometry>
        </mxCell>
        <mxCell id="BV2q5p9ctBvcztRm7qWQ-60" value="&lt;b&gt;&lt;font style=&quot;font-size: 14px&quot;&gt;Checklist Incomplete: &lt;br&gt;DataBC provides feedback&lt;/font&gt;&lt;/b&gt;" style="edgeLabel;html=1;align=center;verticalAlign=middle;resizable=0;points=[];fontSize=12;fontFamily=Helvetica;direction=south;" parent="BV2q5p9ctBvcztRm7qWQ-56" vertex="1" connectable="0">
          <mxGeometry x="-0.3215" y="-2" relative="1" as="geometry">
            <mxPoint x="-103" y="0.71" as="offset" />
          </mxGeometry>
        </mxCell>
        <mxCell id="2tCSn5X5kFdM__O0FERV-57" value="&#xa;&#xa;&lt;span style=&quot;color: rgb(0, 0, 0); font-family: helvetica; font-size: 12px; font-style: normal; font-weight: 400; letter-spacing: normal; text-align: center; text-indent: 0px; text-transform: none; word-spacing: 0px; background-color: rgb(248, 249, 250); display: inline; float: none;&quot;&gt;Complete Open Data Assessment and Checklist&lt;/span&gt;&#xa;&#xa;" style="text;html=1;strokeColor=none;fillColor=none;align=center;verticalAlign=middle;whiteSpace=wrap;rounded=0;" parent="77e6c97f196da883-2" vertex="1">
          <mxGeometry x="830" y="475.00000000000006" width="160" height="20" as="geometry" />
        </mxCell>
        <mxCell id="2tCSn5X5kFdM__O0FERV-23" value="" style="group" parent="77e6c97f196da883-2" vertex="1" connectable="0">
          <mxGeometry x="1040" y="201" width="140" height="101" as="geometry" />
        </mxCell>
        <mxCell id="2tCSn5X5kFdM__O0FERV-20" value="" style="outlineConnect=0;dashed=0;verticalLabelPosition=bottom;verticalAlign=top;align=center;html=1;shape=mxgraph.aws3.add_on;fillColor=#759C3E;gradientColor=none;" parent="2tCSn5X5kFdM__O0FERV-23" vertex="1">
          <mxGeometry x="25" width="90" height="51" as="geometry" />
        </mxCell>
        <mxCell id="2tCSn5X5kFdM__O0FERV-22" value="DataBC adds new editor to Sub-Org in BCDC" style="text;html=1;strokeColor=none;fillColor=none;align=center;verticalAlign=middle;whiteSpace=wrap;rounded=0;" parent="2tCSn5X5kFdM__O0FERV-23" vertex="1">
          <mxGeometry y="81" width="140" height="20" as="geometry" />
        </mxCell>
        <mxCell id="2tCSn5X5kFdM__O0FERV-26" value="" style="group" parent="77e6c97f196da883-2" vertex="1" connectable="0">
          <mxGeometry x="1270" y="186.5" width="160" height="121" as="geometry" />
        </mxCell>
        <mxCell id="2tCSn5X5kFdM__O0FERV-24" value="" style="verticalLabelPosition=bottom;html=1;verticalAlign=top;strokeWidth=2;shape=mxgraph.lean_mapping.boat_shipment;align=center;strokeColor=#0000CC;" parent="2tCSn5X5kFdM__O0FERV-26" vertex="1">
          <mxGeometry x="30" width="80" height="80" as="geometry" />
        </mxCell>
        <mxCell id="2tCSn5X5kFdM__O0FERV-25" value="&#xa;&#xa;&lt;span style=&quot;color: rgb(0, 0, 0); font-family: helvetica; font-size: 12px; font-style: normal; font-weight: 400; letter-spacing: normal; text-align: center; text-indent: 0px; text-transform: none; word-spacing: 0px; background-color: rgb(248, 249, 250); display: inline; float: none;&quot;&gt;DataBC to provide BCDC&lt;/span&gt;&lt;br style=&quot;color: rgb(0, 0, 0); font-family: helvetica; font-size: 12px; font-style: normal; font-weight: 400; letter-spacing: normal; text-align: center; text-indent: 0px; text-transform: none; word-spacing: 0px; background-color: rgb(248, 249, 250);&quot;&gt;&lt;span style=&quot;color: rgb(0, 0, 0); font-family: helvetica; font-size: 12px; font-style: normal; font-weight: 400; letter-spacing: normal; text-align: center; text-indent: 0px; text-transform: none; word-spacing: 0px; background-color: rgb(248, 249, 250); display: inline; float: none;&quot;&gt;on-boarding session&lt;/span&gt;&lt;br style=&quot;color: rgb(0, 0, 0); font-family: helvetica; font-size: 12px; font-style: normal; font-weight: 400; letter-spacing: normal; text-align: center; text-indent: 0px; text-transform: none; word-spacing: 0px; background-color: rgb(248, 249, 250);&quot;&gt;&lt;span style=&quot;color: rgb(0, 0, 0); font-family: helvetica; font-size: 12px; font-style: normal; font-weight: 400; letter-spacing: normal; text-align: center; text-indent: 0px; text-transform: none; word-spacing: 0px; background-color: rgb(248, 249, 250); display: inline; float: none;&quot;&gt;(optional)&lt;/span&gt;&#xa;&#xa;" style="text;html=1;strokeColor=none;fillColor=none;align=center;verticalAlign=middle;whiteSpace=wrap;rounded=0;" parent="2tCSn5X5kFdM__O0FERV-26" vertex="1">
          <mxGeometry y="101" width="160" height="20" as="geometry" />
        </mxCell>
        <mxCell id="2tCSn5X5kFdM__O0FERV-69" value="" style="group" parent="77e6c97f196da883-2" vertex="1" connectable="0">
          <mxGeometry x="1270" y="470" width="180" height="108" as="geometry" />
        </mxCell>
        <mxCell id="2tCSn5X5kFdM__O0FERV-67" value="DataBC reviews Open Data Assessment and Checklist" style="text;html=1;strokeColor=none;fillColor=none;align=center;verticalAlign=middle;whiteSpace=wrap;rounded=0;" parent="2tCSn5X5kFdM__O0FERV-69" vertex="1">
          <mxGeometry width="180" height="20" as="geometry" />
        </mxCell>
        <mxCell id="2tCSn5X5kFdM__O0FERV-66" value="" style="shape=image;html=1;verticalAlign=top;verticalLabelPosition=bottom;labelBackgroundColor=#ffffff;imageAspect=0;aspect=fixed;image=https://cdn0.iconfinder.com/data/icons/customicondesignoffice5/128/analysis.png;strokeColor=#0000CC;fillColor=#E6E6E6;" parent="2tCSn5X5kFdM__O0FERV-69" vertex="1">
          <mxGeometry x="51" y="30" width="78" height="78" as="geometry" />
        </mxCell>
        <mxCell id="u-Ag5X-3Hhz4MKtl7owg-24" value="" style="curved=1;endArrow=classic;html=1;exitX=1;exitY=0.5;exitDx=0;exitDy=0;entryX=0.5;entryY=1;entryDx=0;entryDy=0;" parent="77e6c97f196da883-2" source="2tCSn5X5kFdM__O0FERV-97" target="u-Ag5X-3Hhz4MKtl7owg-19" edge="1">
          <mxGeometry width="50" height="50" relative="1" as="geometry">
            <mxPoint x="1350" y="1059.24" as="sourcePoint" />
            <mxPoint x="1400" y="1009.24" as="targetPoint" />
            <Array as="points">
              <mxPoint x="1790" y="1110" />
            </Array>
          </mxGeometry>
        </mxCell>
        <mxCell id="2tCSn5X5kFdM__O0FERV-96" value="" style="group" parent="77e6c97f196da883-2" vertex="1" connectable="0">
          <mxGeometry x="1540" y="1035" width="100" height="110" as="geometry" />
        </mxCell>
        <mxCell id="2tCSn5X5kFdM__O0FERV-97" value="" style="shape=image;html=1;verticalAlign=top;verticalLabelPosition=bottom;labelBackgroundColor=#ffffff;imageAspect=0;aspect=fixed;image=https://cdn1.iconfinder.com/data/icons/prettyoffice9/128/complete-file.png;strokeColor=#0000CC;" parent="2tCSn5X5kFdM__O0FERV-96" vertex="1">
          <mxGeometry x="11" width="78" height="78" as="geometry" />
        </mxCell>
        <mxCell id="2tCSn5X5kFdM__O0FERV-98" value="&lt;span style=&quot;font-size: 14px&quot;&gt;Sub-task complete&lt;/span&gt;" style="text;html=1;strokeColor=none;fillColor=none;align=center;verticalAlign=middle;whiteSpace=wrap;rounded=0;" parent="2tCSn5X5kFdM__O0FERV-96" vertex="1">
          <mxGeometry y="90" width="100" height="20" as="geometry" />
        </mxCell>
        <mxCell id="2tCSn5X5kFdM__O0FERV-76" value="" style="group" parent="77e6c97f196da883-2" vertex="1" connectable="0">
          <mxGeometry x="1540" y="611.03" width="100" height="110" as="geometry" />
        </mxCell>
        <mxCell id="2tCSn5X5kFdM__O0FERV-77" value="" style="shape=image;html=1;verticalAlign=top;verticalLabelPosition=bottom;labelBackgroundColor=#ffffff;imageAspect=0;aspect=fixed;image=https://cdn1.iconfinder.com/data/icons/prettyoffice9/128/complete-file.png;strokeColor=#0000CC;" parent="2tCSn5X5kFdM__O0FERV-76" vertex="1">
          <mxGeometry x="11" width="78" height="78" as="geometry" />
        </mxCell>
        <mxCell id="2tCSn5X5kFdM__O0FERV-78" value="&lt;span style=&quot;font-size: 14px&quot;&gt;Sub-task complete&lt;/span&gt;" style="text;html=1;strokeColor=none;fillColor=none;align=center;verticalAlign=middle;whiteSpace=wrap;rounded=0;" parent="2tCSn5X5kFdM__O0FERV-76" vertex="1">
          <mxGeometry y="90" width="100" height="20" as="geometry" />
        </mxCell>
        <mxCell id="2tCSn5X5kFdM__O0FERV-30" value="" style="group" parent="77e6c97f196da883-2" vertex="1" connectable="0">
          <mxGeometry x="1540" y="187.5" width="100" height="110" as="geometry" />
        </mxCell>
        <mxCell id="2tCSn5X5kFdM__O0FERV-28" value="" style="shape=image;html=1;verticalAlign=top;verticalLabelPosition=bottom;labelBackgroundColor=#ffffff;imageAspect=0;aspect=fixed;image=https://cdn1.iconfinder.com/data/icons/prettyoffice9/128/complete-file.png;strokeColor=#0000CC;" parent="2tCSn5X5kFdM__O0FERV-30" vertex="1">
          <mxGeometry x="11" width="78" height="78" as="geometry" />
        </mxCell>
        <mxCell id="2tCSn5X5kFdM__O0FERV-29" value="&lt;span style=&quot;font-size: 14px&quot;&gt;Sub-task complete&lt;/span&gt;" style="text;html=1;strokeColor=none;fillColor=none;align=center;verticalAlign=middle;whiteSpace=wrap;rounded=0;" parent="2tCSn5X5kFdM__O0FERV-30" vertex="1">
          <mxGeometry y="90" width="100" height="20" as="geometry" />
        </mxCell>
        <mxCell id="2tCSn5X5kFdM__O0FERV-11" value="" style="group" parent="77e6c97f196da883-2" vertex="1" connectable="0">
          <mxGeometry x="607" y="26.75999999999999" width="190" height="104" as="geometry" />
        </mxCell>
        <mxCell id="2tCSn5X5kFdM__O0FERV-10" value="&lt;br&gt;&lt;br&gt;&lt;span style=&quot;color: rgb(0 , 0 , 0) ; font-family: &amp;#34;helvetica&amp;#34; ; font-size: 12px ; font-style: normal ; font-weight: 400 ; letter-spacing: normal ; text-align: center ; text-indent: 0px ; text-transform: none ; word-spacing: 0px ; background-color: rgb(248 , 249 , 250) ; display: inline ; float: none&quot;&gt;We have a current BCDC editor on our team for this dataset&lt;/span&gt;" style="text;html=1;strokeColor=none;fillColor=none;align=center;verticalAlign=middle;whiteSpace=wrap;rounded=0;" parent="2tCSn5X5kFdM__O0FERV-11" vertex="1">
          <mxGeometry y="84.00000000000001" width="190" height="20" as="geometry" />
        </mxCell>
        <mxCell id="2tCSn5X5kFdM__O0FERV-9" value="" style="shape=image;html=1;verticalAlign=top;verticalLabelPosition=bottom;labelBackgroundColor=#ffffff;imageAspect=0;aspect=fixed;image=https://cdn2.iconfinder.com/data/icons/people-80/96/Picture22-128.png" parent="2tCSn5X5kFdM__O0FERV-11" vertex="1">
          <mxGeometry x="53" width="84" height="84" as="geometry" />
        </mxCell>
        <mxCell id="2tCSn5X5kFdM__O0FERV-14" value="" style="group" parent="77e6c97f196da883-2" vertex="1" connectable="0">
          <mxGeometry x="630" y="187.5" width="160" height="112.5" as="geometry" />
        </mxCell>
        <mxCell id="2tCSn5X5kFdM__O0FERV-12" value="" style="shape=image;html=1;verticalAlign=top;verticalLabelPosition=bottom;labelBackgroundColor=#ffffff;imageAspect=0;aspect=fixed;image=https://cdn1.iconfinder.com/data/icons/user-interface-562/128/02_new_user-128.png" parent="2tCSn5X5kFdM__O0FERV-14" vertex="1">
          <mxGeometry x="40" width="80" height="80" as="geometry" />
        </mxCell>
        <mxCell id="2tCSn5X5kFdM__O0FERV-13" value="&#xa;&#xa;&lt;span style=&quot;color: rgb(0, 0, 0); font-family: helvetica; font-size: 12px; font-style: normal; font-weight: 400; letter-spacing: normal; text-align: center; text-indent: 0px; text-transform: none; word-spacing: 0px; background-color: rgb(248, 249, 250); display: inline; float: none;&quot;&gt;We need to on-board a new BCDC editor for our team&lt;/span&gt;&#xa;&#xa;" style="text;html=1;strokeColor=none;fillColor=none;align=center;verticalAlign=middle;whiteSpace=wrap;rounded=0;" parent="2tCSn5X5kFdM__O0FERV-14" vertex="1">
          <mxGeometry y="92.5" width="160" height="20" as="geometry" />
        </mxCell>
        <mxCell id="2tCSn5X5kFdM__O0FERV-95" value="" style="group" parent="77e6c97f196da883-2" vertex="1" connectable="0">
          <mxGeometry x="809" y="700" width="180" height="100" as="geometry" />
        </mxCell>
        <mxCell id="2tCSn5X5kFdM__O0FERV-71" value="&lt;br&gt;&lt;br&gt;&lt;span style=&quot;color: rgb(0 , 0 , 0) ; font-family: &amp;#34;helvetica&amp;#34; ; font-size: 12px ; font-style: normal ; font-weight: 400 ; letter-spacing: normal ; text-align: center ; text-indent: 0px ; text-transform: none ; word-spacing: 0px ; background-color: rgb(248 , 249 , 250) ; display: inline ; float: none&quot;&gt;Complete steps described in:&lt;br&gt;&lt;a href=&quot;https://bcgov.github.io/data-publication/pages/faq.html#data-publication-licensing-options---open-dataaccess-only&quot;&gt;How do I create an Open Data Licence?&lt;/a&gt;&lt;/span&gt;&lt;br&gt;" style="text;html=1;strokeColor=none;fillColor=none;align=center;verticalAlign=middle;whiteSpace=wrap;rounded=0;" parent="2tCSn5X5kFdM__O0FERV-95" vertex="1">
          <mxGeometry y="80" width="180" height="20" as="geometry" />
        </mxCell>
        <mxCell id="2tCSn5X5kFdM__O0FERV-73" value="" style="shape=image;html=1;verticalAlign=top;verticalLabelPosition=bottom;labelBackgroundColor=#ffffff;imageAspect=0;aspect=fixed;image=https://cdn4.iconfinder.com/data/icons/Basic_set2_Png/64/licence.png;strokeColor=#0000CC;fillColor=#E6E6E6;" parent="2tCSn5X5kFdM__O0FERV-95" vertex="1">
          <mxGeometry x="50" width="80" height="80" as="geometry" />
        </mxCell>
        <mxCell id="2tCSn5X5kFdM__O0FERV-82" value="" style="group" parent="77e6c97f196da883-2" vertex="1" connectable="0">
          <mxGeometry x="415.5" y="1080" width="115.5" height="110.75999999999999" as="geometry" />
        </mxCell>
        <mxCell id="2tCSn5X5kFdM__O0FERV-80" value="" style="html=1;verticalLabelPosition=bottom;align=center;labelBackgroundColor=#ffffff;verticalAlign=top;strokeWidth=2;shadow=0;dashed=0;shape=mxgraph.ios7.icons.user;fillColor=#808080;strokeColor=#FFFFFF;" parent="2tCSn5X5kFdM__O0FERV-82" vertex="1">
          <mxGeometry x="20.25" width="75" height="75" as="geometry" />
        </mxCell>
        <mxCell id="2tCSn5X5kFdM__O0FERV-81" value="Identify the contacts for the dataset" style="text;html=1;strokeColor=none;fillColor=none;align=center;verticalAlign=middle;whiteSpace=wrap;rounded=0;" parent="2tCSn5X5kFdM__O0FERV-82" vertex="1">
          <mxGeometry y="90.75999999999999" width="115.5" height="20" as="geometry" />
        </mxCell>
        <mxCell id="2tCSn5X5kFdM__O0FERV-106" value="" style="curved=1;endArrow=classic;html=1;exitX=0.998;exitY=0.494;exitDx=0;exitDy=0;exitPerimeter=0;entryX=0;entryY=0.5;entryDx=0;entryDy=0;" parent="77e6c97f196da883-2" source="2tCSn5X5kFdM__O0FERV-84" target="2tCSn5X5kFdM__O0FERV-97" edge="1">
          <mxGeometry width="50" height="50" relative="1" as="geometry">
            <mxPoint x="990" y="1150" as="sourcePoint" />
            <mxPoint x="1040" y="1100" as="targetPoint" />
          </mxGeometry>
        </mxCell>
        <mxCell id="2tCSn5X5kFdM__O0FERV-108" value="" style="curved=1;endArrow=classic;html=1;entryX=-0.028;entryY=0.428;entryDx=0;entryDy=0;entryPerimeter=0;" parent="77e6c97f196da883-2" target="2tCSn5X5kFdM__O0FERV-2" edge="1">
          <mxGeometry width="50" height="50" relative="1" as="geometry">
            <mxPoint x="113" y="610" as="sourcePoint" />
            <mxPoint x="1040" y="760" as="targetPoint" />
            <Array as="points">
              <mxPoint x="160" y="635" />
              <mxPoint x="140" y="550" />
              <mxPoint x="30" y="600" />
              <mxPoint x="180" y="590" />
            </Array>
          </mxGeometry>
        </mxCell>
        <mxCell id="u-Ag5X-3Hhz4MKtl7owg-9" value="" style="curved=1;endArrow=classic;html=1;exitX=1;exitY=0.5;exitDx=0;exitDy=0;exitPerimeter=0;entryX=0;entryY=0.5;entryDx=0;entryDy=0;" parent="77e6c97f196da883-2" source="2tCSn5X5kFdM__O0FERV-5" target="2tCSn5X5kFdM__O0FERV-12" edge="1">
          <mxGeometry width="50" height="50" relative="1" as="geometry">
            <mxPoint x="1000" y="580" as="sourcePoint" />
            <mxPoint x="1050" y="530" as="targetPoint" />
            <Array as="points">
              <mxPoint x="590" y="240" />
            </Array>
          </mxGeometry>
        </mxCell>
        <mxCell id="u-Ag5X-3Hhz4MKtl7owg-10" value="" style="endArrow=classic;html=1;exitX=1;exitY=0.5;exitDx=0;exitDy=0;entryX=0;entryY=0.5;entryDx=0;entryDy=0;" parent="77e6c97f196da883-2" source="2tCSn5X5kFdM__O0FERV-12" target="2tCSn5X5kFdM__O0FERV-15" edge="1">
          <mxGeometry width="50" height="50" relative="1" as="geometry">
            <mxPoint x="1000" y="580" as="sourcePoint" />
            <mxPoint x="1050" y="530" as="targetPoint" />
          </mxGeometry>
        </mxCell>
        <mxCell id="u-Ag5X-3Hhz4MKtl7owg-11" style="edgeStyle=orthogonalEdgeStyle;rounded=0;orthogonalLoop=1;jettySize=auto;html=1;exitX=1;exitY=0.5;exitDx=0;exitDy=0;entryX=0;entryY=0.5;entryDx=0;entryDy=0;entryPerimeter=0;" parent="77e6c97f196da883-2" source="2tCSn5X5kFdM__O0FERV-15" target="2tCSn5X5kFdM__O0FERV-20" edge="1">
          <mxGeometry relative="1" as="geometry" />
        </mxCell>
        <mxCell id="u-Ag5X-3Hhz4MKtl7owg-12" style="edgeStyle=orthogonalEdgeStyle;rounded=0;orthogonalLoop=1;jettySize=auto;html=1;exitX=1;exitY=0.5;exitDx=0;exitDy=0;exitPerimeter=0;entryX=0.26;entryY=0.5;entryDx=0;entryDy=0;entryPerimeter=0;" parent="77e6c97f196da883-2" source="2tCSn5X5kFdM__O0FERV-20" target="2tCSn5X5kFdM__O0FERV-24" edge="1">
          <mxGeometry relative="1" as="geometry" />
        </mxCell>
        <mxCell id="u-Ag5X-3Hhz4MKtl7owg-13" style="edgeStyle=orthogonalEdgeStyle;rounded=0;orthogonalLoop=1;jettySize=auto;html=1;exitX=0.74;exitY=0.5;exitDx=0;exitDy=0;exitPerimeter=0;entryX=0;entryY=0.5;entryDx=0;entryDy=0;" parent="77e6c97f196da883-2" source="2tCSn5X5kFdM__O0FERV-24" target="2tCSn5X5kFdM__O0FERV-28" edge="1">
          <mxGeometry relative="1" as="geometry" />
        </mxCell>
        <mxCell id="u-Ag5X-3Hhz4MKtl7owg-14" value="" style="curved=1;endArrow=classic;html=1;exitX=1;exitY=0.5;exitDx=0;exitDy=0;entryX=0.5;entryY=0;entryDx=0;entryDy=0;" parent="77e6c97f196da883-2" source="2tCSn5X5kFdM__O0FERV-34" target="2tCSn5X5kFdM__O0FERV-77" edge="1">
          <mxGeometry width="50" height="50" relative="1" as="geometry">
            <mxPoint x="1000" y="580" as="sourcePoint" />
            <mxPoint x="1050" y="530" as="targetPoint" />
            <Array as="points">
              <mxPoint x="1620" y="290" />
            </Array>
          </mxGeometry>
        </mxCell>
        <mxCell id="u-Ag5X-3Hhz4MKtl7owg-15" style="edgeStyle=orthogonalEdgeStyle;rounded=0;orthogonalLoop=1;jettySize=auto;html=1;exitX=1;exitY=0.5;exitDx=0;exitDy=0;entryX=0;entryY=0.5;entryDx=0;entryDy=0;" parent="77e6c97f196da883-2" source="2tCSn5X5kFdM__O0FERV-51" target="2tCSn5X5kFdM__O0FERV-73" edge="1">
          <mxGeometry relative="1" as="geometry" />
        </mxCell>
        <mxCell id="u-Ag5X-3Hhz4MKtl7owg-16" style="edgeStyle=orthogonalEdgeStyle;rounded=0;orthogonalLoop=1;jettySize=auto;html=1;exitX=1;exitY=0.5;exitDx=0;exitDy=0;entryX=0;entryY=0.5;entryDx=0;entryDy=0;" parent="77e6c97f196da883-2" source="2tCSn5X5kFdM__O0FERV-50" target="2tCSn5X5kFdM__O0FERV-56" edge="1">
          <mxGeometry relative="1" as="geometry" />
        </mxCell>
        <mxCell id="u-Ag5X-3Hhz4MKtl7owg-18" value="" style="endArrow=classic;html=1;exitX=0.664;exitY=0.557;exitDx=0;exitDy=0;exitPerimeter=0;entryX=0;entryY=0.5;entryDx=0;entryDy=0;" parent="77e6c97f196da883-2" source="2tCSn5X5kFdM__O0FERV-60" target="2tCSn5X5kFdM__O0FERV-66" edge="1">
          <mxGeometry width="50" height="50" relative="1" as="geometry">
            <mxPoint x="1000" y="570" as="sourcePoint" />
            <mxPoint x="1050" y="520" as="targetPoint" />
          </mxGeometry>
        </mxCell>
        <mxCell id="2tCSn5X5kFdM__O0FERV-65" value="" style="group" parent="77e6c97f196da883-2" vertex="1" connectable="0">
          <mxGeometry x="1051" y="500" width="155" height="111.02999999999997" as="geometry" />
        </mxCell>
        <mxCell id="2tCSn5X5kFdM__O0FERV-60" value="" style="html=1;verticalLabelPosition=bottom;align=center;labelBackgroundColor=#ffffff;verticalAlign=top;strokeWidth=2;strokeColor=#0080F0;shadow=0;dashed=0;shape=mxgraph.ios7.icons.pointer;fillColor=#E6E6E6;" parent="2tCSn5X5kFdM__O0FERV-65" vertex="1">
          <mxGeometry x="42.5" width="70" height="70" as="geometry" />
        </mxCell>
        <mxCell id="2tCSn5X5kFdM__O0FERV-61" value="&#xa;&#xa;&lt;span style=&quot;color: rgb(0, 0, 0); font-family: helvetica; font-size: 12px; font-style: normal; font-weight: 400; letter-spacing: normal; text-align: center; text-indent: 0px; text-transform: none; word-spacing: 0px; background-color: rgb(248, 249, 250); display: inline; float: none;&quot;&gt;Send completed Open Data Assessment and Checklist to DataBC&lt;/span&gt;&#xa;&#xa;" style="text;html=1;strokeColor=none;fillColor=none;align=center;verticalAlign=middle;whiteSpace=wrap;rounded=0;" parent="2tCSn5X5kFdM__O0FERV-65" vertex="1">
          <mxGeometry y="91.02999999999997" width="155" height="20" as="geometry" />
        </mxCell>
        <mxCell id="u-Ag5X-3Hhz4MKtl7owg-23" value="" style="curved=1;endArrow=classic;html=1;exitX=1;exitY=0.5;exitDx=0;exitDy=0;entryX=0.5;entryY=0;entryDx=0;entryDy=0;" parent="77e6c97f196da883-2" source="2tCSn5X5kFdM__O0FERV-28" target="u-Ag5X-3Hhz4MKtl7owg-19" edge="1">
          <mxGeometry width="50" height="50" relative="1" as="geometry">
            <mxPoint x="1670" y="213.26" as="sourcePoint" />
            <mxPoint x="1720" y="163.26" as="targetPoint" />
            <Array as="points">
              <mxPoint x="1780" y="190" />
            </Array>
          </mxGeometry>
        </mxCell>
        <mxCell id="u-Ag5X-3Hhz4MKtl7owg-19" value="" style="shape=image;html=1;verticalAlign=top;verticalLabelPosition=bottom;labelBackgroundColor=#ffffff;imageAspect=0;aspect=fixed;image=https://cdn2.iconfinder.com/data/icons/greenline/512/check-128.png" parent="77e6c97f196da883-2" vertex="1">
          <mxGeometry x="1740" y="617.5" width="80" height="80" as="geometry" />
        </mxCell>
        <mxCell id="u-Ag5X-3Hhz4MKtl7owg-22" value="" style="curved=1;endArrow=classic;html=1;exitX=1;exitY=0.5;exitDx=0;exitDy=0;entryX=0;entryY=0.5;entryDx=0;entryDy=0;" parent="77e6c97f196da883-2" source="2tCSn5X5kFdM__O0FERV-77" target="u-Ag5X-3Hhz4MKtl7owg-19" edge="1">
          <mxGeometry width="50" height="50" relative="1" as="geometry">
            <mxPoint x="1635" y="640" as="sourcePoint" />
            <mxPoint x="1685" y="590" as="targetPoint" />
          </mxGeometry>
        </mxCell>
        <mxCell id="u-Ag5X-3Hhz4MKtl7owg-6" value="" style="endArrow=classic;html=1;entryX=0;entryY=0.5;entryDx=0;entryDy=0;" parent="77e6c97f196da883-2" target="2tCSn5X5kFdM__O0FERV-50" edge="1">
          <mxGeometry width="50" height="50" relative="1" as="geometry">
            <mxPoint x="510" y="539" as="sourcePoint" />
            <mxPoint x="1050" y="730" as="targetPoint" />
          </mxGeometry>
        </mxCell>
        <mxCell id="dyx47_Bi7B1BSTxxDO61-2" value="" style="curved=1;endArrow=classic;html=1;exitX=1;exitY=0.5;exitDx=0;exitDy=0;entryX=0;entryY=1;entryDx=0;entryDy=0;" parent="77e6c97f196da883-2" source="2tCSn5X5kFdM__O0FERV-73" target="2tCSn5X5kFdM__O0FERV-77" edge="1">
          <mxGeometry width="50" height="50" relative="1" as="geometry">
            <mxPoint x="1000" y="880" as="sourcePoint" />
            <mxPoint x="1050" y="830" as="targetPoint" />
            <Array as="points">
              <mxPoint x="1320" y="780" />
            </Array>
          </mxGeometry>
        </mxCell>
        <mxCell id="u-Ag5X-3Hhz4MKtl7owg-7" value="" style="endArrow=classic;html=1;entryX=0;entryY=0.5;entryDx=0;entryDy=0;" parent="1" target="2tCSn5X5kFdM__O0FERV-51" edge="1">
          <mxGeometry width="50" height="50" relative="1" as="geometry">
            <mxPoint x="-570" y="660" as="sourcePoint" />
            <mxPoint x="-30" y="850" as="targetPoint" />
          </mxGeometry>
        </mxCell>
      </root>
    </mxGraphModel>
  </diagram>
</mxfile>
